# xmcd CD database file
#
# Track frame offsets:
#	150
#	29912
#	50299
#	73911
#	97032
#	119668
#	137403
#	155445
#	177286
#	207579
#	231445
#	251805
#	267998
#	294703
#	319985
#
# Disc length: 4501 seconds
#
# Revision: 0
# Processed by: cddbd v1.5.1PL0 Copyright (c) Steve Scherf et al.
# Submitted via: CDex 1.51
#
DISCID=f611930f
DTITLE=Various Artist - Smooth Jazz Ballads
DYEAR=2004
DGENRE=Jazz
TTITLE0=Groover Washington Jr - Can You Stop The Rain
TTITLE1=Al Jarreau - Through it all
TTITLE2=Lee Ritenour - A little Dolphin Dreamin´
TTITLE3=Kenny G - Malibu Dreams
TTITLE4=Will Downing - Do You Still Love Me
TTITLE5=Martin Taylor - Midnight at the Oasis
TTITLE6=Dave Kzu featuring Brian Mcknight - Love Changes Everything
TTITLE7=Lee Ritenour - Dave Grusin - Never Can Say Goodby
TTITLE8=Everette Harp - Love you to the Letter
TTITLE9=Chris Botti - Chantal Kreviazuk - The Look of Love
TTITLE10=Jonathan Butler - Take Good Care of me
TTITLE11=Peter White - Got to be there
TTITLE12=Pete Belasco - Deeper
TTITLE13=David Sanborn - Sugar
TTITLE14=Fourplay - Let´s Make Love
EXTD=YEAR: 2004
EXTT0=
EXTT1=
EXTT2=
EXTT3=
EXTT4=
EXTT5=
EXTT6=
EXTT7=
EXTT8=
EXTT9=
EXTT10=
EXTT11=
EXTT12=
EXTT13=
EXTT14=
PLAYORDER=
